<svg width="132" height="132" viewBox="0 0 131 132" fill="none" xmlns="http://www.w3.org/2000/svg" preserveAspectRatio="xMidYMid meet">
<path d="M61.2754 1.91309C63.5579 0.0290401 66.833 0.028957 69.1152 1.91309L74.4346 6.30469C76.2338 7.78943 78.6305 8.30699 80.873 7.69336L87.4824 5.88574C90.3185 5.1099 93.3069 6.45516 94.6367 9.11621L97.7598 15.3672C98.8033 17.4548 100.775 18.9114 103.062 19.2783L109.855 20.3672C112.748 20.8312 114.932 23.2835 115.083 26.2549L115.439 33.3066C115.557 35.6321 116.768 37.763 118.699 39.0371L124.511 42.8711C126.96 44.4872 127.966 47.6186 126.919 50.3887L124.419 57.002C123.598 59.1723 123.851 61.6087 125.098 63.5605L128.894 69.4971C130.483 71.9843 130.142 75.257 128.078 77.3545L123.163 82.3496C121.54 83.9991 120.794 86.3321 121.153 88.6289L122.247 95.6191C122.706 98.5528 121.076 101.407 118.346 102.472L111.901 104.983C109.745 105.824 108.119 107.658 107.527 109.914L105.743 116.714C104.988 119.594 102.343 121.536 99.4141 121.377L92.5684 121.006C90.3955 120.888 88.2968 121.77 86.8467 123.386L86.5654 123.719L82.248 129.154C80.4015 131.479 77.199 132.167 74.5811 130.807L68.4883 127.641V127.64C66.4214 126.566 63.9692 126.566 61.9023 127.64V127.641L55.8086 130.807C53.1913 132.167 49.989 131.479 48.1426 129.154L43.8252 123.719C42.3735 121.891 40.1397 120.88 37.8223 121.006L30.9756 121.377C28.0469 121.535 25.4032 119.594 24.6475 116.714L22.8623 109.914C22.2704 107.658 20.6457 105.824 18.4893 104.983L12.0449 102.472C9.31458 101.407 7.68455 98.5529 8.14355 95.6191L9.2373 88.6289C9.59645 86.3322 8.84981 83.9991 7.22656 82.3496L2.31152 77.3545C0.247773 75.257 -0.0926652 71.9843 1.49707 69.4971L5.29199 63.5605C6.53967 61.6085 6.79123 59.1722 5.9707 57.002L3.4707 50.3887C2.42355 47.6186 3.43039 44.4872 5.87988 42.8711L11.6904 39.0371C13.6216 37.763 14.8323 35.6322 14.9502 33.3066L15.3076 26.2549C15.4583 23.2833 17.6424 20.831 20.5352 20.3672L27.3271 19.2783C29.615 18.9115 31.5867 17.4548 32.6299 15.3672L35.7529 9.11621C37.0825 6.45518 40.0721 5.10985 42.9082 5.88574L49.5166 7.69336C51.7594 8.30696 54.1564 7.78947 55.9551 6.30469L61.2754 1.91309Z" stroke="#434343"/>
</svg>
