<svg width="10" height="10" viewBox="0 0 10 10" fill="none" xmlns="http://www.w3.org/2000/svg">
<path d="M0.146447 8.6318C-0.0488156 8.82706 -0.0488156 9.14364 0.146447 9.3389C0.341709 9.53417 0.658291 9.53417 0.853553 9.3389L0.5 8.98535L0.146447 8.6318ZM9.48528 0.500069C9.48528 0.223927 9.26142 6.94551e-05 8.98528 6.93403e-05L4.48528 6.99304e-05C4.20914 6.97734e-05 3.98528 0.223928 3.98528 0.50007C3.98528 0.776212 4.20914 1.00007 4.48528 1.00007L8.48528 1.00007V5.00007C8.48528 5.27621 8.70914 5.50007 8.98528 5.50007C9.26142 5.50007 9.48528 5.27621 9.48528 5.00007L9.48528 0.500069ZM0.5 8.98535L0.853553 9.3389L9.33883 0.853623L8.98528 0.50007L8.63173 0.146516L0.146447 8.6318L0.5 8.98535Z" fill="#434343"/>
</svg>
